<svg data-v-423bf9ae="" xmlns="http://www.w3.org/2000/svg" viewBox="0 0 387 90" class="iconLeft"><!----><!----><!----><g data-v-423bf9ae="" id="b6039e22-392e-49c1-a716-b88646266ddd" fill="black" transform="matrix(5.92300092025334,0,0,5.92300092025334,57.82615351987536,-0.044421634661773624)"><path d="M1.81 12.06L4.51 12.06L4.51 12.06Q8.58 12.06 8.58 7.52L8.58 7.52L8.58 7.52Q8.58 3.51 4.51 3.51L4.51 3.51L1.81 3.51L1.81 12.06ZM4.51 12.67L1.09 12.67L1.09 2.90L4.58 2.90L4.58 2.90Q9.37 2.90 9.37 7.52L9.37 7.52L9.37 7.52Q9.37 12.67 4.51 12.67L4.51 12.67ZM14.03 5.50L14.03 5.50L14.03 5.50Q16.98 5.50 16.98 8.76L16.98 8.76L16.98 8.76Q16.98 8.99 16.97 9.24L16.97 9.24L11.52 9.24L11.52 9.24Q11.52 12.06 14.50 12.06L14.50 12.06L14.50 12.06Q15.72 12.06 16.67 11.72L16.67 11.72L16.67 12.33L16.67 12.33Q15.72 12.67 14.50 12.67L14.50 12.67L14.50 12.67Q10.80 12.67 10.80 9.00L10.80 9.00L10.80 9.00Q10.80 5.50 14.03 5.50ZM11.52 8.60L11.52 8.60L16.29 8.60L16.29 8.60Q16.25 6.10 14.03 6.10L14.03 6.10L14.03 6.10Q11.64 6.10 11.52 8.60ZM19.54 12.67L18.83 12.67L18.83 5.15L18.83 5.15Q18.83 2.54 21.71 2.54L21.71 2.54L21.71 2.54Q22.59 2.54 23.31 2.82L23.31 2.82L23.31 3.43L23.31 3.43Q22.63 3.16 21.70 3.16L21.70 3.16L21.70 3.16Q19.54 3.16 19.54 5.16L19.54 5.16L19.54 5.50L22.24 5.50L22.24 6.11L19.54 6.11L19.54 12.67ZM23.24 2.90L24.10 2.90L24.10 3.72L23.24 3.72L23.24 2.90ZM23.31 5.50L24.03 5.50L24.03 12.67L23.31 12.67L23.31 5.50ZM26.33 10.74L26.33 4.33L26.83 4.33L26.96 5.50L29.11 5.50L29.11 6.11L27.02 6.11L27.02 10.64L27.02 10.64Q27.02 12.06 28.06 12.06L28.06 12.06L29.11 12.06L29.11 12.67L28.08 12.67L28.08 12.67Q26.33 12.67 26.33 10.74L26.33 10.74ZM31.36 12.67L30.64 12.67L30.64 5.50L31.15 5.50L31.24 6.69L31.24 6.69Q32.32 5.50 33.65 5.50L33.65 5.50L33.65 6.07L33.65 6.07Q32.36 6.07 31.36 7.32L31.36 7.32L31.36 12.67ZM34.57 10.64L34.57 10.64L34.57 10.64Q34.57 8.50 37.41 8.50L37.41 8.50L37.41 8.50Q38.42 8.50 39.56 8.64L39.56 8.64L39.56 7.76L39.56 7.76Q39.56 6.11 37.49 6.11L37.49 6.11L37.49 6.11Q36.31 6.11 35.15 6.45L35.15 6.45L35.15 5.84L35.15 5.84Q36.31 5.50 37.49 5.50L37.49 5.50L37.49 5.50Q40.28 5.50 40.28 7.72L40.28 7.72L40.28 12.67L39.84 12.67L39.68 11.96L39.68 11.96Q38.33 12.67 37.06 12.67L37.06 12.67L37.06 12.67Q34.57 12.67 34.57 10.64ZM37.41 9.12L37.41 9.12L37.41 9.12Q35.29 9.12 35.29 10.62L35.29 10.62L35.29 10.62Q35.29 12.06 37.06 12.06L37.06 12.06L37.06 12.06Q38.38 12.06 39.56 11.36L39.56 11.36L39.56 9.26L39.56 9.26Q38.42 9.12 37.41 9.12ZM47.66 11.85L47.66 12.47L47.66 12.47Q46.77 12.67 45.75 12.67L45.75 12.67L45.75 12.67Q42.12 12.67 42.12 8.95L42.12 8.95L42.12 8.95Q42.12 5.50 45.75 5.50L45.75 5.50L45.75 5.50Q46.77 5.50 47.66 5.70L47.66 5.70L47.66 6.32L47.66 6.32Q46.70 6.11 45.81 6.11L45.81 6.11L45.81 6.11Q42.91 6.11 42.91 8.95L42.91 8.95L42.91 8.95Q42.91 12.06 45.81 12.06L45.81 12.06L45.81 12.06Q46.70 12.06 47.66 11.85L47.66 11.85ZM49.98 12.67L49.27 12.67L49.27 2.90L49.98 2.90L49.98 6.13L49.98 6.13Q51.24 5.50 52.74 5.50L52.74 5.50L52.74 5.50Q55.28 5.50 55.28 7.57L55.28 7.57L55.28 7.57Q55.28 9.14 53.03 9.71L53.03 9.71L55.46 12.67L54.41 12.67L52.12 9.70L52.12 9.27L52.12 9.27Q54.56 8.99 54.56 7.56L54.56 7.56L54.56 7.56Q54.56 6.11 52.58 6.11L52.58 6.11L52.58 6.11Q51.26 6.11 49.98 6.75L49.98 6.75L49.98 12.67Z"></path></g><!----><g data-v-423bf9ae="" id="2f3b0848-6e13-4edd-b69e-0b1c209eaa32" transform="matrix(1.0594842616047246,0,0,1.0594842616047246,-30.9035671834392,-7.4517830111362)" stroke="none" fill="black"><path d="M69.822 44.141c-.215 0-.418.042-.604.114l-8.64-15.591c.406-.292.674-.76.674-1.292 0-.896-.729-1.625-1.623-1.625-.488 0-.914.215-1.205.553L45.44 17.489a1.6 1.6 0 0 0 .183-.732c0-.896-.729-1.625-1.624-1.625-.271 0-.522.075-.747.196l-4.34-6.25a.88.88 0 0 0 .235-.593.89.89 0 1 0-.891.89.882.882 0 0 0 .329-.066l4.34 6.25a1.625 1.625 0 0 0-.528 1.197c0 .896.719 1.625 1.602 1.625.487 0 .92-.22 1.218-.562l12.985 8.812a1.605 1.605 0 0 0 2.026 2.224l8.639 15.589a1.58 1.58 0 0 0-.669 1.297 1.6 1.6 0 0 0 1.232 1.573l-.817 7.564a.88.88 0 0 0-.783.868c0 .074.025.14.042.209l-4.506 2.299a1.593 1.593 0 0 0-1.323-.711c-.896 0-1.625.729-1.625 1.625 0 .213.044.416.121.602l-7.242 4.095a.88.88 0 0 0-.651-.292.876.876 0 0 0-.859.744l-11.651.736a1.604 1.604 0 0 0-1.572-1.301c-.911 0-1.624.703-1.624 1.602 0 .3.083.574.22.812l-3.744 2.781a.873.873 0 0 0-.568-.22.885.885 0 1 0-.389 1.683L31.4 74.97c-.057-.006-.112-.017-.17-.017-.883 0-1.601.718-1.601 1.601a1.62 1.62 0 0 0 1.262 1.587l-.316 3.241a.88.88 0 0 0-.751.866c0 .492.399.89.868.89a.877.877 0 0 0 .688-.348l15.233 7.116c-.011.057-.033.108-.033.168 0 .469.396.867.866.867.491 0 .891-.398.891-.867a.865.865 0 0 0-.065-.322l3.823-2.613c.158.146.367.24.601.24a.89.89 0 0 0 .891-.891c0-.061-.023-.115-.035-.174l4.74-2.182c.278.464.778.771 1.364.771.284 0 .545-.076.775-.2l3.607 5.048a1.618 1.618 0 0 0-.526 1.189c0 .883.729 1.602 1.627 1.602.882 0 1.6-.719 1.6-1.602 0-.574-.296-1.076-.739-1.365l2.108-4.367c.165.056.339.093.522.093.895 0 1.623-.729 1.623-1.624 0-.884-.729-1.602-1.623-1.602-.491 0-.926.219-1.225.559l-1.698-1.148a.898.898 0 0 0 .063-.316.89.89 0 1 0-1.782 0c0 .047.02.088.026.133l-2.95 1.187a1.606 1.606 0 0 0-1.41-.812c-.792 0-1.446.578-1.575 1.332l-18.962-.854a.874.874 0 0 0-.832-.723l-.343-1.704a1.598 1.598 0 0 0 1.099-1.512c0-.669-.401-1.245-.972-1.493l2.142-7.584c.015.001.026.009.041.009a.89.89 0 0 0 .891-.89c0-.021-.011-.039-.012-.061l10.76-3.295a.875.875 0 0 0 .756.449.89.89 0 0 0 .892-.891.84.84 0 0 0-.054-.265l7.257-4.083c.296.395.768.653 1.303.653.883 0 1.602-.718 1.602-1.601 0-.195-.04-.381-.103-.555l4.507-2.3a.88.88 0 0 0 .672.323.89.89 0 0 0 .89-.891.883.883 0 0 0-.599-.832l.816-7.55c.896-.003 1.595-.715 1.595-1.624a1.606 1.606 0 0 0-1.603-1.595zM43.999 17.382c-.326 0-.602-.287-.602-.625s.275-.625.602-.625a.625.625 0 0 1 0 1.25zm15.026 9.99c0-.351.265-.625.604-.625.344 0 .623.28.623.625 0 .326-.285.601-.623.601a.604.604 0 0 1-.604-.601zM38.562 64.754c.332 0 .603.27.603.602 0 .35-.265.624-.603.624a.611.611 0 0 1-.624-.624c0-.338.274-.602.624-.602zm-7.935 11.802c0-.331.27-.601.601-.601.351 0 .626.264.626.601 0 .356-.27.625-.626.625a.607.607 0 0 1-.601-.625zm34.509 14.989c-.34 0-.627-.275-.627-.602 0-.345.281-.625.627-.625.336 0 .6.274.6.625a.602.602 0 0 1-.6.602zm3.491-8.467a.62.62 0 0 1 .623.602.624.624 0 1 1-1.25 0c0-.326.287-.602.627-.602zm-4.465-1.402a.874.874 0 0 0 .717.387.883.883 0 0 0 .602-.242l1.697 1.146a1.55 1.55 0 0 0-.178.713c0 .57.297 1.07.744 1.36l-2.108 4.368a1.538 1.538 0 0 0-.5-.09c-.281 0-.542.078-.773.204l-3.607-5.046c.319-.295.521-.717.521-1.195 0-.147-.025-.286-.062-.42l2.947-1.185zm-4.51 1.004c.35 0 .623.264.623.602a.611.611 0 0 1-.623.625.608.608 0 0 1-.603-.625.603.603 0 0 1 .603-.602zm-22.214-3.86c-.338 0-.624-.275-.624-.601 0-.345.28-.625.624-.625.337 0 .602.274.602.625a.602.602 0 0 1-.602.601zm2.812-11.449a.884.884 0 0 0-.422 1.649l-2.146 7.6a1.627 1.627 0 0 0-.244-.024c-.896 0-1.624.729-1.624 1.625 0 .882.729 1.601 1.624 1.601.038 0 .073-.009.11-.012l.343 1.705a.886.886 0 0 0-.523.807c0 .492.399.89.89.89a.88.88 0 0 0 .843-.651l18.963.854c.01.123.031.242.065.355l-4.743 2.187a.874.874 0 0 0-.692-.354.89.89 0 0 0-.89.89.88.88 0 0 0 .064.322l-3.825 2.613a.882.882 0 0 0-.599-.24.85.85 0 0 0-.672.355L31.543 82.43c.013-.06.036-.115.036-.178a.882.882 0 0 0-.607-.834l.316-3.241a1.604 1.604 0 0 0 1.565-1.619 1.6 1.6 0 0 0-1.066-1.497l1.056-4.549.002.001a.891.891 0 0 0 .815-1.247l3.734-2.772c.293.302.704.488 1.168.488.864 0 1.543-.663 1.593-1.524l10.805-.684-9.952 3.049a.88.88 0 0 0-.758-.452zm21.792-7.6a.607.607 0 0 1-.625-.601c0-.345.28-.625.625-.625.326 0 .602.286.602.625 0 .331-.27.601-.602.601zm7.78-13.404a.612.612 0 0 1-.625-.625c0-.337.274-.601.625-.601.331 0 .6.27.6.601 0 .35-.264.625-.6.625z"></path></g><!----></svg>