<svg data-v-423bf9ae="" xmlns="http://www.w3.org/2000/svg" viewBox="0 0 322.0335537077266 60" class="font"><!----><!----><!----><g data-v-423bf9ae="" id="ac292b80-13f6-4e9d-86d7-cef7c9e27be9" fill="white" transform="matrix(5.92300092025334,0,0,5.92300092025334,-6.456073042624638,-15.044421634661774)"><path d="M1.81 12.06L4.51 12.06L4.51 12.06Q8.58 12.06 8.58 7.52L8.58 7.52L8.58 7.52Q8.58 3.51 4.51 3.51L4.51 3.51L1.81 3.51L1.81 12.06ZM4.51 12.67L1.09 12.67L1.09 2.90L4.58 2.90L4.58 2.90Q9.37 2.90 9.37 7.52L9.37 7.52L9.37 7.52Q9.37 12.67 4.51 12.67L4.51 12.67ZM14.03 5.50L14.03 5.50L14.03 5.50Q16.98 5.50 16.98 8.76L16.98 8.76L16.98 8.76Q16.98 8.99 16.97 9.24L16.97 9.24L11.52 9.24L11.52 9.24Q11.52 12.06 14.50 12.06L14.50 12.06L14.50 12.06Q15.72 12.06 16.67 11.72L16.67 11.72L16.67 12.33L16.67 12.33Q15.72 12.67 14.50 12.67L14.50 12.67L14.50 12.67Q10.80 12.67 10.80 9.00L10.80 9.00L10.80 9.00Q10.80 5.50 14.03 5.50ZM11.52 8.60L11.52 8.60L16.29 8.60L16.29 8.60Q16.25 6.10 14.03 6.10L14.03 6.10L14.03 6.10Q11.64 6.10 11.52 8.60ZM19.54 12.67L18.83 12.67L18.83 5.15L18.83 5.15Q18.83 2.54 21.71 2.54L21.71 2.54L21.71 2.54Q22.59 2.54 23.31 2.82L23.31 2.82L23.31 3.43L23.31 3.43Q22.63 3.16 21.70 3.16L21.70 3.16L21.70 3.16Q19.54 3.16 19.54 5.16L19.54 5.16L19.54 5.50L22.24 5.50L22.24 6.11L19.54 6.11L19.54 12.67ZM23.24 2.90L24.10 2.90L24.10 3.72L23.24 3.72L23.24 2.90ZM23.31 5.50L24.03 5.50L24.03 12.67L23.31 12.67L23.31 5.50ZM26.33 10.74L26.33 4.33L26.83 4.33L26.96 5.50L29.11 5.50L29.11 6.11L27.02 6.11L27.02 10.64L27.02 10.64Q27.02 12.06 28.06 12.06L28.06 12.06L29.11 12.06L29.11 12.67L28.08 12.67L28.08 12.67Q26.33 12.67 26.33 10.74L26.33 10.74ZM31.36 12.67L30.64 12.67L30.64 5.50L31.15 5.50L31.24 6.69L31.24 6.69Q32.32 5.50 33.65 5.50L33.65 5.50L33.65 6.07L33.65 6.07Q32.36 6.07 31.36 7.32L31.36 7.32L31.36 12.67ZM34.57 10.64L34.57 10.64L34.57 10.64Q34.57 8.50 37.41 8.50L37.41 8.50L37.41 8.50Q38.42 8.50 39.56 8.64L39.56 8.64L39.56 7.76L39.56 7.76Q39.56 6.11 37.49 6.11L37.49 6.11L37.49 6.11Q36.31 6.11 35.15 6.45L35.15 6.45L35.15 5.84L35.15 5.84Q36.31 5.50 37.49 5.50L37.49 5.50L37.49 5.50Q40.28 5.50 40.28 7.72L40.28 7.72L40.28 12.67L39.84 12.67L39.68 11.96L39.68 11.96Q38.33 12.67 37.06 12.67L37.06 12.67L37.06 12.67Q34.57 12.67 34.57 10.64ZM37.41 9.12L37.41 9.12L37.41 9.12Q35.29 9.12 35.29 10.62L35.29 10.62L35.29 10.62Q35.29 12.06 37.06 12.06L37.06 12.06L37.06 12.06Q38.38 12.06 39.56 11.36L39.56 11.36L39.56 9.26L39.56 9.26Q38.42 9.12 37.41 9.12ZM47.66 11.85L47.66 12.47L47.66 12.47Q46.77 12.67 45.75 12.67L45.75 12.67L45.75 12.67Q42.12 12.67 42.12 8.95L42.12 8.95L42.12 8.95Q42.12 5.50 45.75 5.50L45.75 5.50L45.75 5.50Q46.77 5.50 47.66 5.70L47.66 5.70L47.66 6.32L47.66 6.32Q46.70 6.11 45.81 6.11L45.81 6.11L45.81 6.11Q42.91 6.11 42.91 8.95L42.91 8.95L42.91 8.95Q42.91 12.06 45.81 12.06L45.81 12.06L45.81 12.06Q46.70 12.06 47.66 11.85L47.66 11.85ZM49.98 12.67L49.27 12.67L49.27 2.90L49.98 2.90L49.98 6.13L49.98 6.13Q51.24 5.50 52.74 5.50L52.74 5.50L52.74 5.50Q55.28 5.50 55.28 7.57L55.28 7.57L55.28 7.57Q55.28 9.14 53.03 9.71L53.03 9.71L55.46 12.67L54.41 12.67L52.12 9.70L52.12 9.27L52.12 9.27Q54.56 8.99 54.56 7.56L54.56 7.56L54.56 7.56Q54.56 6.11 52.58 6.11L52.58 6.11L52.58 6.11Q51.26 6.11 49.98 6.75L49.98 6.75L49.98 12.67Z"></path></g><!----><!----></svg>